<svg xmlns="http://www.w3.org/2000/svg" xmlns:xlink="http://www.w3.org/1999/xlink" version="1.1" x="0px" y="0px" viewBox="0 0 100 125" enable-background="new 0 0 100 100" xml:space="preserve"><g><path d="M39.549,42.217c-2.092-0.682-11.059-3.607-15.508-5.098c-2.256,5.819-14.174,37.303-10.067,42.717   c4.528,5.971,20.792-1.028,25.527,0c4.736,1.031,4.152-2.26,4.152-2.26L39.549,42.217z"/><path d="M51.475,24.534c-1.242-1.697-8.308-1.338-8.308-1.338s-1.793-3.847-2.948-4.559c-1.35-0.829-5.121-0.682-5.121-0.682   s0.351-5.571-1.349-5.986c-3.244-0.793-7.559,16.508-8.916,22.333c3.652,1.481,10.491,4.122,14.351,4.765l-0.038-0.328   c0,0,0.134-2.813,2.011-3.484c1.262-0.451,7.505-1.732,9.249-3.484C51.693,30.475,52.558,26.01,51.475,24.534z"/></g><g><path d="M57.232,52.332c2.788-0.841,7.129-2.381,10.711-4.673c-0.139-1.864,0.462-3.943,0.717-5.211   c0.401-2.01-0.134-3.158-1.207-6.032c-0.193-0.517-1.067-6.255-2.813-6.433c-1.722-0.175-4.021,5.628-4.021,5.628   s-4.96,0-5.553,2.212c-0.713,2.657-3.454,4.102-3.561,4.49c-0.412,1.496,0.313,5.559,2.697,6.179   C55.656,48.871,56.709,50.762,57.232,52.332z"/><path d="M69.159,50.501c-0.23-0.212-0.415-0.45-0.573-0.703c-1.927,1.046-7.719,4.114-10.932,4.993   c1.313,6.186,0.563,21.806,0.602,22.475c0.054,0.992-0.593,1.609-0.113,2.4c0.732,1.21,2.17,1.324,3.867,1.017   c1.698-0.312,14.337,3.192,22.256-0.12C93.981,74.712,77.774,53.88,69.159,50.501z"/></g><path d="M13.561,77.88C6.812,72.69,6.75,60.746,5.025,64.354C3.412,67.728,4.989,75.87,8.004,79.445  c2.77,3.284,8.482,3.127,8.709,1.068"/><path d="M87.215,73.905c2.652,1.669,7.471-5.442,3.475-7.84c-2.516-1.509-2.794-1.968-3.504-3.139  c-1.708-2.808,0.529-10.66,4.837-11.671c3.202-0.75,3.41,2.191,1.651,3.151c-4.177,2.483-4.527,6.651-1.684,8.683  c1.607,1.149,2.74,1.968,3.44,4.529c0.989,3.612-1.979,9.358-7.682,11.165c0,0-3.172,0.713-3.757-0.586"/><text x="0" y="115" fill="#000000" font-size="4px" font-weight="bold" font-family="'Helvetica Neue', Helvetica, Arial-Unicode, Arial, Sans-serif">Anne Caroline Bittencourt Gonçalves</text><text x="0" y="119" fill="#000000" font-size="4px" font-weight="bold" font-family="'Helvetica Neue', Helvetica, Arial-Unicode, Arial, Sans-serif">from the Noun Project</text></svg>